# xmcd
#
# Track frame offsets: 
#        150
#        10205
#        17743
#        25718
#        37823
#        55293
#        69258
#        88320
#        104520
#        125275
#        136795
#        155808
#        166243
#        172220
#        180275
#        198970
#        209235
#        226773
#        246190
#        279938
#        299055
#
# Disc length: 4142 seconds
#
# Revision: 0
# Processed by: cddbd v1.5.2PL0 Copyright (c) Steve Scherf et al.
# Submitted via: ExactAudioCopy v0.99pb4
#
DISCID=26102c15
DTITLE=Schubert, Fritz Wunderlich, Kurt Heinz Stolze - Schubert - Die 
DTITLE=schöne Müllerin - Fritz Wunderlich, Kurt Heinz Stolze 1958
DYEAR=1958
DGENRE=Chamber Music
TTITLE0=Das Wandern
TTITLE1=Wohin
TTITLE2=Halt
TTITLE3=Danksagung an den Bach
TTITLE4=Am Feirerabend
TTITLE5=Der Neugierige
TTITLE6=Ungeduld
TTITLE7=Morgengruß
TTITLE8=Des Müllers Blumen
TTITLE9=Tränenregen
TTITLE10=Mein
TTITLE11=Mit Dem Grünen Lautenbande
TTITLE12=Der Jäger
TTITLE13=Eifersucht Und Stolz
TTITLE14=Die Liebe Farbe
TTITLE15=Die Böse Farbe
TTITLE16=Trockne Blumen
TTITLE17=Der Müller Und Der Bach
TTITLE18=Des Baches Wiegenlied
TTITLE19=Ständchen
TTITLE20=Der Musensohn
EXTD=
EXTT0=
EXTT1=
EXTT2=
EXTT3=
EXTT4=
EXTT5=
EXTT6=
EXTT7=
EXTT8=
EXTT9=
EXTT10=
EXTT11=
EXTT12=
EXTT13=
EXTT14=
EXTT15=
EXTT16=
EXTT17=
EXTT18=
EXTT19=
EXTT20=
PLAYORDER=
